<svg id="Слой_1" data-name="Слой 1" xmlns="http://www.w3.org/2000/svg" viewBox="0 0 30 60">
  <defs>
    <style>
      .cls-1 {
        fill: #373810;
      }

      .cls-2 {
        fill: none;
        stroke: #c4c4c4;
        stroke-miterlimit: 10;
      }
    </style>
  </defs>
  <title>Погон</title>
  <g>
    <rect class="cls-1" x="0.5" y="0.5" width="29" height="59" rx="1.02"/>
    <path class="cls-1" d="M28.48,2a.52.52,0,0,1,.52.52v57a.52.52,0,0,1-.52.52h-27A.52.52,0,0,1,1,59.48v-57A.52.52,0,0,1,1.52,2h27m0-1h-27A1.52,1.52,0,0,0,0,2.52v57A1.52,1.52,0,0,0,1.52,61h27A1.52,1.52,0,0,0,30,59.48v-57A1.52,1.52,0,0,0,28.48,1Z" transform="translate(0 -1)"/>
  </g>
  <line class="cls-2" x1="15" y1="2" x2="15" y2="58"/>
  <line class="cls-2" x1="18.45" y1="53.49" x2="14.75" y2="57.91"/>
  <line class="cls-2" x1="11.55" y1="53.49" x2="15.25" y2="57.91"/>
  <line class="cls-2" x1="11.5" y1="49" x2="18.5" y2="49"/>
  <line class="cls-2" x1="11.5" y1="43" x2="18.5" y2="43"/>
  <line class="cls-2" x1="11.5" y1="46" x2="18.5" y2="46"/>
</svg>
