<svg id="Слой_1" data-name="Слой 1" xmlns="http://www.w3.org/2000/svg" viewBox="0 0 30 80"><defs><style>.cls-1{fill:#373810;}.cls-2{fill:none;stroke:#c4c4c4;stroke-miterlimit:10;}</style></defs><title>pogon2</title><rect class="cls-1" x="0.5" y="0.5" width="29" height="79" rx="1.02"/><path class="cls-1" d="M28.48-8a.52.52,0,0,1,.52.52v77a.52.52,0,0,1-.52.52h-27A.52.52,0,0,1,1,69.48v-77A.52.52,0,0,1,1.52-8h27m0-1h-27A1.52,1.52,0,0,0,0-7.48v77A1.52,1.52,0,0,0,1.52,71h27A1.52,1.52,0,0,0,30,69.48v-77A1.52,1.52,0,0,0,28.48-9Z" transform="translate(0 9)"/><line class="cls-2" x1="15" y1="1" x2="15" y2="79"/><line class="cls-2" x1="18.45" y1="74.49" x2="14.75" y2="78.91"/><line class="cls-2" x1="11.55" y1="74.49" x2="15.25" y2="78.91"/><line class="cls-2" x1="11.5" y1="69" x2="18.5" y2="69"/><line class="cls-2" x1="11.5" y1="63" x2="18.5" y2="63"/><line class="cls-2" x1="11.5" y1="66" x2="18.5" y2="66"/></svg>